<svg xmlns="http://www.w3.org/2000/svg" viewBox="0 0 160.11 180.03"><defs><style>.cls-1,.cls-2{fill:#34262a;}.cls-2{font-size:48px;font-family:OpenSans-Bold, Open Sans;font-weight:700;}</style></defs><title>ganache-cli-icon</title><g id="Layer_2" data-name="Layer 2"><g id="Mask"><path class="cls-1" d="M80,2a13,13,0,0,1,6.28,1.47l65.51,37.89a14.15,14.15,0,0,1,6.29,10.89l.06,75.68a14.09,14.09,0,0,1-6.27,10.87L86.41,176.57a14.17,14.17,0,0,1-12.56,0L8.34,138.68a14.15,14.15,0,0,1-6.29-10.89L2,52.12A14.1,14.1,0,0,1,8.28,41.24L73.71,3.46A13,13,0,0,1,80,2m0-2a14.87,14.87,0,0,0-7.27,1.73L7.28,39.51A16.14,16.14,0,0,0,0,52.12l.06,75.67a16.19,16.19,0,0,0,7.28,12.62L72.85,178.3a16.14,16.14,0,0,0,14.56,0l65.44-37.78a16.12,16.12,0,0,0,7.27-12.6l-.06-75.68a16.19,16.19,0,0,0-7.28-12.62L87.26,1.74A14.88,14.88,0,0,0,80,0Z"/><text class="cls-2" transform="translate(29.44 128.42)">&gt;_</text></g></g></svg>
